<mxfile host="65bd71144e">
    <diagram name="Страница 1" id="XqwJs3OHlsFWiFqLp2U1">
        <mxGraphModel dx="1799" dy="932" grid="1" gridSize="10" guides="1" tooltips="1" connect="1" arrows="1" fold="1" page="1" pageScale="1" pageWidth="850" pageHeight="1100" math="0" shadow="0">
            <root>
                <mxCell id="0"/>
                <mxCell id="1" parent="0"/>
                <mxCell id="221" value="app (Приложение админ панель)" style="shape=folder;fontStyle=1;spacingTop=20;tabWidth=40;tabHeight=14;tabPosition=left;html=1;fontSize=32;verticalAlign=top;" parent="1" vertex="1">
                    <mxGeometry x="-370" y="10" width="1690" height="1040" as="geometry"/>
                </mxCell>
                <mxCell id="187" value="controllers" style="shape=folder;fontStyle=1;spacingTop=20;tabWidth=40;tabHeight=14;tabPosition=left;html=1;verticalAlign=top;" parent="1" vertex="1">
                    <mxGeometry x="248" y="210" width="362" height="170" as="geometry"/>
                </mxCell>
                <mxCell id="197" style="edgeStyle=orthogonalEdgeStyle;rounded=1;html=1;dashed=1;" parent="1" source="163" target="187" edge="1">
                    <mxGeometry relative="1" as="geometry"/>
                </mxCell>
                <mxCell id="163" value="«source»&#10;AdminRoute.php" style="shape=module;align=left;spacingLeft=20;align=center;verticalAlign=top;" parent="1" vertex="1">
                    <mxGeometry x="-220" y="160" width="170" height="60" as="geometry"/>
                </mxCell>
                <mxCell id="177" style="edgeStyle=orthogonalEdgeStyle;rounded=1;html=1;dashed=1;" parent="1" source="168" target="163" edge="1">
                    <mxGeometry relative="1" as="geometry"/>
                </mxCell>
                <mxCell id="200" style="edgeStyle=orthogonalEdgeStyle;rounded=1;html=1;dashed=1;" parent="1" source="168" target="187" edge="1">
                    <mxGeometry relative="1" as="geometry">
                        <Array as="points">
                            <mxPoint x="100" y="350"/>
                            <mxPoint x="100" y="295"/>
                        </Array>
                    </mxGeometry>
                </mxCell>
                <mxCell id="168" value="«executable»&#10;AdminPanelAPI.php" style="shape=module;align=left;spacingLeft=20;align=center;verticalAlign=top;" parent="1" vertex="1">
                    <mxGeometry x="-220" y="320" width="170" height="60" as="geometry"/>
                </mxCell>
                <mxCell id="173" value="AdminPanelModule" style="text;html=1;align=center;verticalAlign=middle;resizable=0;points=[];autosize=1;strokeColor=none;fillColor=none;" parent="1" vertex="1">
                    <mxGeometry x="-360" y="295" width="130" height="30" as="geometry"/>
                </mxCell>
                <mxCell id="137" style="edgeStyle=orthogonalEdgeStyle;rounded=1;jumpStyle=none;html=1;strokeWidth=1;fontColor=default;startArrow=none;startFill=0;endArrow=none;endFill=0;endSize=10;exitX=1;exitY=0.5;exitDx=0;exitDy=0;entryX=-0.031;entryY=0.495;entryDx=0;entryDy=0;entryPerimeter=0;" parent="1" source="138" target="218" edge="1">
                    <mxGeometry relative="1" as="geometry">
                        <mxPoint x="-505" y="310" as="sourcePoint"/>
                        <mxPoint x="-370" y="350" as="targetPoint"/>
                        <Array as="points"/>
                    </mxGeometry>
                </mxCell>
                <mxCell id="138" value="«source»&#10;DashboardModule.php" style="shape=module;align=left;spacingLeft=20;align=center;verticalAlign=top;" parent="1" vertex="1">
                    <mxGeometry x="-590" y="320" width="170" height="60" as="geometry"/>
                </mxCell>
                <mxCell id="178" value="«Source»&#10;MainController.php" style="shape=module;align=left;spacingLeft=20;align=center;verticalAlign=top;" parent="1" vertex="1">
                    <mxGeometry x="303" y="280" width="170" height="60" as="geometry"/>
                </mxCell>
                <mxCell id="205" style="edgeStyle=orthogonalEdgeStyle;rounded=1;html=1;dashed=1;" parent="1" source="198" target="203" edge="1">
                    <mxGeometry relative="1" as="geometry"/>
                </mxCell>
                <mxCell id="218" value="" style="shape=providedRequiredInterface;html=1;verticalLabelPosition=bottom;sketch=0;movable=1;resizable=1;rotatable=1;deletable=1;editable=1;connectable=1;fontSize=32;" parent="1" vertex="1">
                    <mxGeometry x="-330" y="340" width="20" height="20" as="geometry"/>
                </mxCell>
                <mxCell id="220" style="edgeStyle=orthogonalEdgeStyle;rounded=1;jumpStyle=none;html=1;strokeWidth=1;fontColor=default;startArrow=none;startFill=0;endArrow=none;endFill=0;endSize=10;exitX=1;exitY=0.5;exitDx=0;exitDy=0;exitPerimeter=0;" parent="1" source="218" target="168" edge="1">
                    <mxGeometry relative="1" as="geometry">
                        <mxPoint x="-319.4" y="350.1" as="sourcePoint"/>
                        <mxPoint x="-270.02" y="350.0000000000001" as="targetPoint"/>
                        <Array as="points"/>
                    </mxGeometry>
                </mxCell>
                <mxCell id="225" value="" style="group" vertex="1" connectable="0" parent="1">
                    <mxGeometry x="900" y="250" width="355" height="250" as="geometry"/>
                </mxCell>
                <mxCell id="59" value="Views" style="shape=folder;fontStyle=1;spacingTop=20;tabWidth=40;tabHeight=14;tabPosition=left;html=1;fontColor=default;verticalAlign=top;" parent="225" vertex="1">
                    <mxGeometry width="355" height="250" as="geometry"/>
                </mxCell>
                <mxCell id="4" value="«Source»&#10;RenderAdminPage.php" style="shape=module;align=left;spacingLeft=20;align=center;verticalAlign=top;" parent="225" vertex="1">
                    <mxGeometry x="55" y="95" width="170" height="60" as="geometry"/>
                </mxCell>
                <mxCell id="5" value="" style="rounded=0;orthogonalLoop=1;jettySize=auto;html=1;endArrow=none;endFill=0;sketch=0;sourcePerimeterSpacing=0;targetPerimeterSpacing=0;" parent="225" source="4" target="51" edge="1">
                    <mxGeometry relative="1" as="geometry">
                        <mxPoint x="130" y="290" as="sourcePoint"/>
                        <mxPoint x="140" y="267.5" as="targetPoint"/>
                    </mxGeometry>
                </mxCell>
                <mxCell id="11" value="UiComponent" style="text;html=1;strokeColor=none;fillColor=none;align=center;verticalAlign=middle;whiteSpace=wrap;rounded=0;" parent="225" vertex="1">
                    <mxGeometry x="45" y="43.75" width="80" height="12.5" as="geometry"/>
                </mxCell>
                <mxCell id="51" value="" style="shape=requiredInterface;html=1;verticalLabelPosition=bottom;sketch=0;rotation=0;fontColor=default;direction=south;" parent="225" vertex="1">
                    <mxGeometry x="130" y="45" width="20" height="10" as="geometry"/>
                </mxCell>
                <mxCell id="226" value="" style="group" vertex="1" connectable="0" parent="1">
                    <mxGeometry x="-290" y="643.75" width="222" height="180" as="geometry"/>
                </mxCell>
                <mxCell id="203" value="services" style="shape=folder;fontStyle=1;spacingTop=20;tabWidth=40;tabHeight=14;tabPosition=left;html=1;verticalAlign=top;" parent="226" vertex="1">
                    <mxGeometry width="222" height="180" as="geometry"/>
                </mxCell>
                <mxCell id="204" value="«Source»&#10;ActiveRecord.php" style="shape=module;align=left;spacingLeft=20;align=center;verticalAlign=top;" parent="226" vertex="1">
                    <mxGeometry x="26" y="70" width="170" height="60" as="geometry"/>
                </mxCell>
                <mxCell id="185" style="edgeStyle=orthogonalEdgeStyle;rounded=1;html=1;dashed=1;entryX=0;entryY=0.5;entryDx=0;entryDy=0;entryPerimeter=0;" parent="1" source="178" target="51" edge="1">
                    <mxGeometry relative="1" as="geometry">
                        <Array as="points">
                            <mxPoint x="720" y="310"/>
                            <mxPoint x="720" y="230"/>
                            <mxPoint x="1040" y="230"/>
                        </Array>
                    </mxGeometry>
                </mxCell>
                <mxCell id="198" value="models" style="shape=folder;fontStyle=1;spacingTop=20;tabWidth=40;tabHeight=14;tabPosition=left;html=1;verticalAlign=top;" parent="1" vertex="1">
                    <mxGeometry x="69" y="480" width="720" height="507.5" as="geometry"/>
                </mxCell>
                <mxCell id="228" value="" style="group" vertex="1" connectable="0" parent="1">
                    <mxGeometry x="89" y="557.5" width="660" height="390" as="geometry"/>
                </mxCell>
                <mxCell id="49" value="UiComponents" style="shape=folder;fontStyle=1;spacingTop=20;tabWidth=40;tabHeight=14;tabPosition=left;align=center;spacing=2;fontColor=default;html=1;verticalAlign=top;movable=1;resizable=1;rotatable=1;deletable=1;editable=1;connectable=1;" parent="228" vertex="1">
                    <mxGeometry width="660" height="390" as="geometry"/>
                </mxCell>
                <mxCell id="53" value="«Source»&#10;MainItems.php" style="shape=module;align=left;spacingLeft=20;align=center;verticalAlign=top;" parent="228" vertex="1">
                    <mxGeometry x="30" y="120" width="170" height="60" as="geometry"/>
                </mxCell>
                <mxCell id="54" value="«Source»&#10;ModulesItems.php" style="shape=module;align=left;spacingLeft=20;align=center;verticalAlign=top;" parent="228" vertex="1">
                    <mxGeometry x="220" y="120" width="170" height="60" as="geometry"/>
                </mxCell>
                <mxCell id="55" value="«Source»&#10;ControlPanel.php" style="shape=module;align=left;spacingLeft=20;align=center;verticalAlign=top;" parent="228" vertex="1">
                    <mxGeometry x="430" y="120" width="170" height="60" as="geometry"/>
                </mxCell>
                <mxCell id="56" value="«Source»&#10;NotificationBlock.php" style="shape=module;align=left;spacingLeft=20;align=center;verticalAlign=top;" parent="228" vertex="1">
                    <mxGeometry x="30" y="260" width="170" height="60" as="geometry"/>
                </mxCell>
                <mxCell id="57" value="«Source»&#10;AccountBlock.php" style="shape=module;align=left;spacingLeft=20;align=center;verticalAlign=top;" parent="228" vertex="1">
                    <mxGeometry x="220" y="260" width="170" height="60" as="geometry"/>
                </mxCell>
                <mxCell id="58" value="Container" style="shape=module;align=left;spacingLeft=20;align=center;verticalAlign=top;" parent="228" vertex="1">
                    <mxGeometry x="430" y="260" width="170" height="60" as="geometry"/>
                </mxCell>
                <mxCell id="82" value="" style="ellipse;whiteSpace=wrap;html=1;align=center;aspect=fixed;resizable=0;points=[];outlineConnect=0;sketch=0;strokeWidth=1;fontSize=12;" parent="228" vertex="1">
                    <mxGeometry x="110" y="70" width="10" height="10" as="geometry"/>
                </mxCell>
                <mxCell id="83" style="edgeStyle=orthogonalEdgeStyle;rounded=1;jumpStyle=none;html=1;strokeWidth=1;fontColor=default;startArrow=none;startFill=0;endArrow=none;endFill=0;endSize=10;" parent="228" source="53" target="82" edge="1">
                    <mxGeometry relative="1" as="geometry">
                        <mxPoint x="115" y="72.5" as="sourcePoint"/>
                    </mxGeometry>
                </mxCell>
                <mxCell id="85" value="UiComponent" style="text;html=1;strokeColor=none;fillColor=none;align=center;verticalAlign=middle;whiteSpace=wrap;rounded=0;" parent="228" vertex="1">
                    <mxGeometry x="20" y="67.5" width="80" height="12.5" as="geometry"/>
                </mxCell>
                <mxCell id="92" value="" style="ellipse;whiteSpace=wrap;html=1;align=center;aspect=fixed;resizable=0;points=[];outlineConnect=0;sketch=0;strokeWidth=1;fontSize=12;" parent="228" vertex="1">
                    <mxGeometry x="310" y="70" width="10" height="10" as="geometry"/>
                </mxCell>
                <mxCell id="93" style="edgeStyle=orthogonalEdgeStyle;rounded=1;jumpStyle=none;html=1;strokeWidth=1;fontColor=default;startArrow=none;startFill=0;endArrow=none;endFill=0;endSize=10;" parent="228" target="92" edge="1">
                    <mxGeometry relative="1" as="geometry">
                        <mxPoint x="315" y="120" as="sourcePoint"/>
                    </mxGeometry>
                </mxCell>
                <mxCell id="94" value="UiComponent" style="text;html=1;strokeColor=none;fillColor=none;align=center;verticalAlign=middle;whiteSpace=wrap;rounded=0;" parent="228" vertex="1">
                    <mxGeometry x="220" y="67.5" width="80" height="12.5" as="geometry"/>
                </mxCell>
                <mxCell id="95" value="" style="ellipse;whiteSpace=wrap;html=1;align=center;aspect=fixed;resizable=0;points=[];outlineConnect=0;sketch=0;strokeWidth=1;fontSize=12;" parent="228" vertex="1">
                    <mxGeometry x="520" y="70" width="10" height="10" as="geometry"/>
                </mxCell>
                <mxCell id="96" style="edgeStyle=orthogonalEdgeStyle;rounded=1;jumpStyle=none;html=1;strokeWidth=1;fontColor=default;startArrow=none;startFill=0;endArrow=none;endFill=0;endSize=10;" parent="228" target="95" edge="1">
                    <mxGeometry relative="1" as="geometry">
                        <mxPoint x="525" y="120" as="sourcePoint"/>
                    </mxGeometry>
                </mxCell>
                <mxCell id="97" value="UiComponent" style="text;html=1;strokeColor=none;fillColor=none;align=center;verticalAlign=middle;whiteSpace=wrap;rounded=0;" parent="228" vertex="1">
                    <mxGeometry x="430" y="67.5" width="80" height="12.5" as="geometry"/>
                </mxCell>
                <mxCell id="98" value="" style="ellipse;whiteSpace=wrap;html=1;align=center;aspect=fixed;resizable=0;points=[];outlineConnect=0;sketch=0;strokeWidth=1;fontSize=12;" parent="228" vertex="1">
                    <mxGeometry x="520" y="210" width="10" height="10" as="geometry"/>
                </mxCell>
                <mxCell id="99" style="edgeStyle=orthogonalEdgeStyle;rounded=1;jumpStyle=none;html=1;strokeWidth=1;fontColor=default;startArrow=none;startFill=0;endArrow=none;endFill=0;endSize=10;" parent="228" target="98" edge="1">
                    <mxGeometry relative="1" as="geometry">
                        <mxPoint x="525" y="260" as="sourcePoint"/>
                    </mxGeometry>
                </mxCell>
                <mxCell id="100" value="UiComponent" style="text;html=1;strokeColor=none;fillColor=none;align=center;verticalAlign=middle;whiteSpace=wrap;rounded=0;" parent="228" vertex="1">
                    <mxGeometry x="430" y="207.5" width="80" height="12.5" as="geometry"/>
                </mxCell>
                <mxCell id="101" value="" style="ellipse;whiteSpace=wrap;html=1;align=center;aspect=fixed;resizable=0;points=[];outlineConnect=0;sketch=0;strokeWidth=1;fontSize=12;" parent="228" vertex="1">
                    <mxGeometry x="310" y="210" width="10" height="10" as="geometry"/>
                </mxCell>
                <mxCell id="102" style="edgeStyle=orthogonalEdgeStyle;rounded=1;jumpStyle=none;html=1;strokeWidth=1;fontColor=default;startArrow=none;startFill=0;endArrow=none;endFill=0;endSize=10;" parent="228" target="101" edge="1">
                    <mxGeometry relative="1" as="geometry">
                        <mxPoint x="315" y="260" as="sourcePoint"/>
                    </mxGeometry>
                </mxCell>
                <mxCell id="103" value="UiComponent" style="text;html=1;strokeColor=none;fillColor=none;align=center;verticalAlign=middle;whiteSpace=wrap;rounded=0;" parent="228" vertex="1">
                    <mxGeometry x="220" y="207.5" width="80" height="12.5" as="geometry"/>
                </mxCell>
                <mxCell id="104" value="" style="ellipse;whiteSpace=wrap;html=1;align=center;aspect=fixed;resizable=0;points=[];outlineConnect=0;sketch=0;strokeWidth=1;fontSize=12;" parent="228" vertex="1">
                    <mxGeometry x="120" y="210" width="10" height="10" as="geometry"/>
                </mxCell>
                <mxCell id="105" style="edgeStyle=orthogonalEdgeStyle;rounded=1;jumpStyle=none;html=1;strokeWidth=1;fontColor=default;startArrow=none;startFill=0;endArrow=none;endFill=0;endSize=10;" parent="228" target="104" edge="1">
                    <mxGeometry relative="1" as="geometry">
                        <mxPoint x="125" y="260" as="sourcePoint"/>
                    </mxGeometry>
                </mxCell>
                <mxCell id="106" value="UiComponent" style="text;html=1;strokeColor=none;fillColor=none;align=center;verticalAlign=middle;whiteSpace=wrap;rounded=0;" parent="228" vertex="1">
                    <mxGeometry x="30" y="207.5" width="80" height="12.5" as="geometry"/>
                </mxCell>
                <mxCell id="229" style="edgeStyle=orthogonalEdgeStyle;html=1;entryX=0.453;entryY=0.036;entryDx=0;entryDy=0;entryPerimeter=0;dashed=1;" edge="1" parent="1" source="178" target="49">
                    <mxGeometry relative="1" as="geometry">
                        <Array as="points"/>
                    </mxGeometry>
                </mxCell>
                <mxCell id="230" value="templates" style="shape=folder;fontStyle=1;spacingTop=20;tabWidth=40;tabHeight=14;tabPosition=left;html=1;verticalAlign=top;" vertex="1" parent="1">
                    <mxGeometry x="992.3199999999999" y="600" width="170.35" height="80" as="geometry"/>
                </mxCell>
                <mxCell id="231" style="edgeStyle=orthogonalEdgeStyle;html=1;dashed=1;" edge="1" parent="1" source="59" target="230">
                    <mxGeometry relative="1" as="geometry"/>
                </mxCell>
            </root>
        </mxGraphModel>
    </diagram>
</mxfile>